<?xml version="1.0" standalone="no"?>
<!DOCTYPE svg PUBLIC "-//W3C//DTD SVG 20010904//EN"
 "http://www.w3.org/TR/2001/REC-SVG-20010904/DTD/svg10.dtd">
<svg version="1.0" xmlns="http://www.w3.org/2000/svg"
 width="263.000000pt" height="263.000000pt" viewBox="0 0 263.000000 263.000000"
 preserveAspectRatio="xMidYMid meet">
<metadata>
Created by potrace 1.14, written by Peter Selinger 2001-2017
</metadata>
<g transform="translate(0.000000,263.000000) scale(0.100000,-0.100000)"
fill="#000000" stroke="none">
<path d="M0 1315 l0 -1315 1315 0 1315 0 0 1315 0 1315 -1315 0 -1315 0 0
-1315z m1107 1098 c51 -24 69 -28 158 -28 55 0 124 4 153 8 l53 8 -6 -46 c-4
-25 -3 -45 1 -44 5 0 23 18 39 41 46 62 123 103 260 139 66 17 130 37 142 45
46 29 45 7 -2 -45 -21 -23 -76 -60 -138 -92 -100 -53 -207 -141 -207 -171 0
-10 24 -18 75 -27 90 -15 177 -56 229 -110 l38 -39 0 -349 c1 -287 -2 -361
-16 -422 -49 -219 -160 -373 -381 -526 -55 -38 -148 -117 -206 -175 -86 -86
-113 -119 -144 -183 -33 -66 -39 -88 -39 -145 -1 -37 3 -80 7 -95 14 -50 -10
-20 -33 41 -18 46 -21 71 -17 127 11 153 113 303 348 511 203 181 289 343 289
543 0 89 -20 168 -84 330 -67 170 -73 203 -46 255 11 22 18 41 16 43 -8 9 -55
-18 -75 -43 -27 -34 -27 -82 0 -179 11 -41 19 -96 17 -122 -3 -42 -6 -47 -33
-55 -47 -13 -197 -12 -256 2 -30 7 -75 23 -101 37 -57 28 -62 17 -12 -27 72
-62 219 -106 332 -97 54 4 61 3 50 -10 -6 -8 -30 -24 -52 -36 -57 -30 -152
-28 -284 7 -116 31 -142 30 -89 -3 62 -38 124 -115 137 -171 11 -44 10 -54 -7
-81 -31 -54 -64 -71 -146 -77 -167 -10 -405 66 -493 160 -61 64 -52 94 46 146
59 31 100 80 100 119 l0 25 -31 -26 c-32 -27 -63 -33 -75 -15 -6 11 -43 9
-156 -7 -38 -5 -49 -3 -54 9 -13 36 62 132 194 248 118 103 145 147 135 215
-3 23 0 58 6 77 13 39 74 99 126 124 l33 16 -14 40 c-15 43 -19 134 -5 155 5
9 13 0 25 -31 9 -24 32 -58 51 -77 l34 -33 -20 54 c-12 30 -23 88 -26 129 l-5
75 51 -57 c32 -35 73 -67 108 -85z m857 -51 c4 -26 2 -63 -4 -82 -13 -45 -13
-70 1 -70 13 0 136 -73 166 -99 l22 -19 -22 -43 c-31 -62 -29 -208 6 -384 70
-349 60 -527 -39 -715 -73 -140 -199 -249 -452 -389 -62 -35 -140 -83 -173
-108 -63 -46 -119 -121 -119 -160 0 -13 -4 -23 -10 -23 -5 0 -10 20 -10 44 0
94 114 245 267 352 262 185 383 344 424 559 15 78 12 235 -6 400 -20 171 -16
313 11 389 17 49 17 49 -7 68 -47 37 -135 94 -172 111 l-38 17 40 48 c44 53
80 124 81 162 1 23 1 24 14 7 8 -10 17 -40 20 -65z m-354 -979 c0 -106 -21
-197 -66 -283 -34 -65 -112 -164 -99 -125 4 11 16 44 26 73 29 78 41 187 29
250 -5 30 -12 58 -15 62 -3 5 8 16 24 25 17 8 43 31 58 50 15 19 31 35 36 35
4 0 7 -39 7 -87z m-1123 14 c12 -11 27 -34 33 -51 13 -40 28 -156 21 -156 -10
0 -57 64 -80 107 -12 25 -21 61 -21 88 0 49 4 51 47 12z m523 -406 c0 -24 -39
-54 -54 -42 -20 16 -136 23 -152 10 -28 -23 -114 79 -114 135 l0 26 45 -35
c38 -28 125 -65 156 -65 4 0 5 26 2 58 l-6 57 62 -62 c35 -35 61 -70 61 -82z
m310 34 c20 -121 -2 -199 -74 -262 -55 -49 -111 -67 -280 -94 -72 -11 -144
-26 -160 -34 -16 -8 -30 -15 -32 -15 -1 0 -10 23 -19 51 -34 101 -3 240 51
231 49 -8 168 -3 194 8 25 10 37 10 70 -4 50 -20 102 -20 139 -1 36 18 70 86
78 154 8 66 19 55 33 -34z"/>
<path d="M1135 1986 c-74 -17 -181 -152 -200 -251 -5 -27 -4 -28 7 -11 29 43
72 87 104 107 32 19 39 20 78 9 53 -15 78 -8 110 31 14 16 32 29 41 29 28 0
85 28 110 56 36 38 31 43 -22 26 -41 -14 -54 -14 -117 -1 -51 11 -82 12 -111
5z"/>
</g>
</svg>
